<?xml version="1.0" standalone="no"?>
<!DOCTYPE svg PUBLIC "-//W3C//DTD SVG 1.1//EN" "http://www.w3.org/Graphics/SVG/1.1/DTD/svg11.dtd" >
<svg xmlns="http://www.w3.org/2000/svg">
<metadata>Generated by IcoMoon</metadata>
<defs>
<font id="telepresence-bot-icons" horiz-adv-x="1024">
<font-face units-per-em="1024" ascent="960" descent="-64" />
<missing-glyph horiz-adv-x="1024" />
<glyph unicode="&#x20;" horiz-adv-x="0" d="" />
<glyph unicode="&#xe900;" glyph-name="telepresence-bot" d="M361.648 271.003h300.698v-91.576h-300.698zM408.97 407.819v-91.023h183.162v91.023c-28.491-12.502-59.614-19.28-91.576-19.28s-63.093 6.785-91.586 19.28zM109.791 316.796h206.060v-68.688h-206.060zM109.791 202.315h206.060v-68.688h-206.060zM247.168 431.273h-68.688c-37.869 0-68.688-30.809-68.688-68.688h206.060c0 37.879-30.809 68.688-68.688 68.688zM178.48 19.15h68.688c37.879 0 68.688 30.809 68.688 68.688h-206.060c0-37.879 30.817-68.688 68.688-68.688zM708.146 202.315h206.060v-68.688h-206.060zM708.146 316.796h206.060v-68.688h-206.060zM776.832 19.15h68.688c37.869 0 68.688 30.809 68.688 68.688h-206.060c0-37.879 30.809-68.688 68.688-68.688zM708.146 362.585h206.060c0 37.879-30.817 68.688-68.688 68.688h-68.688c-37.879 0-68.688-30.809-68.688-68.688zM500.556 434.332c67.652 0 126.861 36.88 158.578 91.586h116.175v274.746h-549.504v-274.746h116.175c31.716-54.704 90.916-91.586 158.578-91.586zM683.718 754.875h45.798v-45.798h-45.798zM500.556 731.979c63.122 0 114.475-51.353 114.475-114.484 0-63.122-51.353-114.475-114.475-114.475-63.128 0-114.484 51.353-114.484 114.475 0 63.128 51.353 114.484 114.484 114.484zM500.556 548.813c37.869 0 68.686 30.817 68.686 68.688 0 37.879-30.817 68.688-68.688 68.688-37.879 0-68.688-30.809-68.688-68.688 0-37.869 30.809-68.688 68.688-68.688zM500.556 640.397c12.645 0 22.889-10.249 22.889-22.898 0-12.645-10.249-22.889-22.889-22.889-12.647 0-22.898 10.249-22.898 22.889 0 12.647 10.249 22.898 22.898 22.898z" />
<glyph unicode="&#xe901;" glyph-name="menu-hamburger" d="M128 661.334h768v-86h-768v86zM128 363.334v84h768v-84h-768zM128 149.334v86h768v-86h-768z" />
<glyph unicode="&#xe902;" glyph-name="settings" d="M640 533.334v256h86v-86h170v-84h-170v-86h-86zM896 363.334h-426v84h426v-84zM298 533.334h86v-256h-86v86h-170v84h170v86zM554 21.334h-84v256h84v-86h342v-84h-342v-86zM128 703.334h426v-84h-426v84zM128 191.334h256v-84h-256v84z" />
<glyph unicode="&#xe903;" glyph-name="menu-horizontal" d="M512 491.334q34 0 60-26t26-60-26-60-60-26-60 26-26 60 26 60 60 26zM768 491.334q34 0 60-26t26-60-26-60-60-26-60 26-26 60 26 60 60 26zM256 491.334q34 0 60-26t26-60-26-60-60-26-60 26-26 60 26 60 60 26z" />
<glyph unicode="&#xe904;" glyph-name="menu-vertical" d="M512 235.334q34 0 60-26t26-60-26-60-60-26-60 26-26 60 26 60 60 26zM512 491.334q34 0 60-26t26-60-26-60-60-26-60 26-26 60 26 60 60 26zM512 575.334q-34 0-60 26t-26 60 26 60 60 26 60-26 26-60-26-60-60-26z" />
<glyph unicode="&#xe905;" glyph-name="check-circle" d="M426 191.334l384 384-60 62-324-324-152 152-60-60zM512 831.334q176 0 301-125t125-301-125-301-301-125-301 125-125 301 125 301 301 125z" />
<glyph unicode="&#xe906;" glyph-name="cross-circle" d="M726 251.334l-154 154 154 154-60 60-154-154-154 154-60-60 154-154-154-154 60-60 154 154 154-154zM512 831.334q176 0 301-125t125-301-125-301-301-125-301 125-125 301 125 301 301 125z" />
<glyph unicode="&#xe907;" glyph-name="add-circle" d="M726 363.334v84h-172v172h-84v-172h-172v-84h172v-172h84v172h172zM512 831.334q176 0 301-125t125-301-125-301-301-125-301 125-125 301 125 301 301 125z" />
<glyph unicode="&#xe908;" glyph-name="minus-circle" d="M726 363.334v84h-428v-84h428zM512 831.334q176 0 301-125t125-301-125-301-301-125-301 125-125 301 125 301 301 125z" />
<glyph unicode="&#xe909;" glyph-name="warning" d="M554 319.334v172h-84v-172h84zM554 149.334v86h-84v-86h84zM42 21.334l470 810 470-810h-940z" />
<glyph unicode="&#xe90a;" glyph-name="help-circle" d="M642 437.334q40 40 40 96 0 70-50 120t-120 50-120-50-50-120h84q0 34 26 60t60 26 60-26 26-60-26-60l-52-54q-50-54-50-120v-22h84q0 66 50 120zM554 107.334v84h-84v-84h84zM512 831.334q176 0 301-125t125-301-125-301-301-125-301 125-125 301 125 301 301 125z" />
<glyph unicode="&#xe90b;" glyph-name="info-circle" d="M554 533.334v86h-84v-86h84zM554 191.334v256h-84v-256h84zM512 831.334q176 0 301-125t125-301-125-301-301-125-301 125-125 301 125 301 301 125z" />
<glyph unicode="&#xe90c;" glyph-name="danger" d="M726 245.334l-160 160 160 160-54 54-160-160-160 160-54-54 160-160-160-160 54-54 160 160 160-160zM672 789.334l224-224v-320l-224-224h-320l-224 224v320l224 224h320z" />
<glyph unicode="&#xe90d;" glyph-name="checkbox" d="M810 789.334q34 0 60-26t26-60v-596q0-34-26-60t-60-26h-596q-34 0-60 26t-26 60v596q0 34 26 60t60 26h596zM810 703.334h-596v-596h596v596z" />
<glyph unicode="&#xe90e;" glyph-name="checkbox-checked" d="M426 191.334l384 384-60 62-324-324-152 152-60-60zM810 789.334q36 0 61-25t25-61v-596q0-36-25-61t-61-25h-596q-36 0-61 25t-25 61v596q0 36 25 61t61 25h596z" />
<glyph unicode="&#xe90f;" glyph-name="radio-button" d="M512 99.724q125.978 0 216.862 90.884t90.884 216.862-90.884 216.862-216.862 90.884-216.862-90.884-90.884-216.862 90.884-216.862 216.862-90.884zM512 790.804q158.372 0 270.852-112.48t112.48-270.852-112.48-270.852-270.852-112.48-270.852 112.48-112.48 270.852 112.48 270.852 270.852 112.48z" />
<glyph unicode="&#xe910;" glyph-name="radio-button-checked" d="M512 99.724q125.978 0 216.862 90.884t90.884 216.862-90.884 216.862-216.862 90.884-216.862-90.884-90.884-216.862 90.884-216.862 216.862-90.884zM512 790.804q158.372 0 270.852-112.48t112.48-270.852-112.48-270.852-270.852-112.48-270.852 112.48-112.48 270.852 112.48 270.852 270.852 112.48zM512 600.038q79.186 0 135.876-56.69t56.69-135.876-56.69-135.876-135.876-56.69-135.876 56.69-56.69 135.876 56.69 135.876 135.876 56.69z" />
<glyph unicode="&#xe911;" glyph-name="edit" d="M884 617.334l-78-78-160 160 78 78q12 12 30 12t30-12l100-100q12-12 12-30t-12-30zM128 181.334l472 472 160-160-472-472h-160v160z" />
<glyph unicode="&#xe912;" glyph-name="check" d="M364.904 197.596l519.432 519.432 68.952-68.952-588.382-588.382-273.506 273.506 68.952 68.952z" />
<glyph unicode="&#xe913;" glyph-name="cross" d="M852.666 674.356l-272.076-272.076 272.076-272.076-68.59-68.59-272.076 272.076-272.076-272.076-68.59 68.59 272.076 272.076-272.076 272.076 68.59 68.59 272.076-272.076 272.076 272.076z" />
<glyph unicode="&#xe914;" glyph-name="block" d="M512 63.334q140 0 241 101t101 241q0 114-74 210l-478-478q96-74 210-74zM170 405.334q0-114 74-210l478 478q-96 74-210 74-140 0-241-101t-101-241zM512 831.334q176 0 301-125t125-301-125-301-301-125-301 125-125 301 125 301 301 125z" />
<glyph unicode="&#xe915;" glyph-name="refresh" d="M754 647.334l100 100v-300h-300l138 138q-76 76-180 76-106 0-181-75t-75-181 75-181 181-75q74 0 145 50t97 120h88q-28-112-120-184t-210-72q-140 0-240 100t-100 242 100 242 240 100q60 0 131-29t111-71z" />
<glyph unicode="&#xe916;" glyph-name="fullscreen" d="M598 703.334h212v-212h-84v128h-128v84zM726 191.334v128h84v-212h-212v84h128zM214 491.334v212h212v-84h-128v-128h-84zM298 319.334v-128h128v-84h-212v212h84z" />
<glyph unicode="&#xe917;" glyph-name="fullscreen-exit" d="M682 575.334h128v-84h-212v212h84v-128zM598 107.334v212h212v-84h-128v-128h-84zM342 575.334v128h84v-212h-212v84h128zM214 235.334v84h212v-212h-84v128h-128z" />
<glyph unicode="&#xe918;" glyph-name="wifi" d="M214 363.334q124 122 299 122t297-122l-84-86q-36 36-99 62t-115 26-115-26-99-62zM384 191.334q54 54 128 54t128-54l-128-128zM42 533.334q196 194 471 194t469-194l-86-86q-160 158-384 158t-384-158z" />
<glyph unicode="&#xe919;" glyph-name="wifi-off" d="M384 191.334q54 54 128 54t128-54l-128-128zM86 787.334l54 54 724-724-54-54-302 302q-50 0-112-26t-98-62l-84 84v2q78 78 188 108l-96 94q-98-40-178-118l-86 86q78 78 174 124zM810 363.334l-40-42-152 150q114-30 192-108zM980 533.334l-84-86q-168 172-412 158l-106 108q162 34 321-12t281-168z" />
<glyph unicode="&#xe91a;" glyph-name="mic" d="M738 447.334h72q0-108-75-189t-181-97v-140h-84v140q-106 16-181 97t-75 189h72q0-94 67-155t159-61 159 61 67 155zM512 319.334q-52 0-90 38t-38 90v256q0 52 38 90t90 38 90-38 38-90v-256q0-52-38-90t-90-38z" />
<glyph unicode="&#xe91b;" glyph-name="mic-off" d="M182 789.334l714-714-54-54-178 178q-44-28-110-38v-140h-84v140q-106 16-181 97t-75 189h72q0-94 67-155t159-61q50 0 98 22l-70 70q-16-4-28-4-52 0-90 38t-38 90v32l-256 256zM640 441.334l-256 254v8q0 52 38 90t90 38 90-38 38-90v-262zM810 447.334q0-74-38-140l-52 54q18 40 18 86h72z" />
<glyph unicode="&#xe91c;" glyph-name="videocam" d="M726 469.334l170 170v-468l-170 170v-150q0-18-13-30t-31-12h-512q-18 0-30 12t-12 30v428q0 18 12 30t30 12h512q18 0 31-12t13-30v-150z" />
<glyph unicode="&#xe91d;" glyph-name="videocam-off" d="M140 831.334l756-756-54-54-136 136q-12-8-24-8h-512q-18 0-30 12t-12 30v428q0 18 12 30t30 12h32l-116 116zM896 639.334v-456l-478 478h264q18 0 31-12t13-30v-150z" />
<glyph unicode="&#xe91e;" glyph-name="volume-mute" d="M298 533.334h172l212 214v-684l-212 214h-172v256z" />
<glyph unicode="&#xe91f;" glyph-name="volume-down" d="M214 533.334h170l214 214v-684l-214 214h-170v256zM790 405.334q0-118-108-172v344q44-22 76-73t32-99z" />
<glyph unicode="&#xe920;" glyph-name="volume-up" d="M598 779.334q130-28 214-133t84-241-84-241-214-133v88q94 28 153 106t59 180-59 180-153 106v88zM704 405.334q0-120-106-172v344q44-22 75-72t31-100zM128 533.334h170l214 214v-684l-214 214h-170v256z" />
<glyph unicode="&#xe921;" glyph-name="volume-off" d="M512 747.334v-180l-90 90zM182 789.334l714-714-54-54-88 88q-66-56-156-78v88q50 14 96 50l-182 182v-288l-214 214h-170v256h202l-202 202zM810 405.334q0 102-59 180t-153 106v88q130-28 214-133t84-241q0-94-44-178l-64 66q22 54 22 112zM704 405.334q0-18-2-26l-104 104v94q44-22 75-72t31-100z" />
<glyph unicode="&#xe922;" glyph-name="bell" d="M768 235.334l86-86v-42h-684v42l86 86v212q0 100 51 174t141 96v30q0 26 18 45t46 19 46-19 18-45v-30q90-22 141-96t51-174v-212zM512-20.666q-36 0-61 24t-25 60h172q0-34-26-59t-60-25z" />
<glyph unicode="&#xe923;" glyph-name="bell-off" d="M768 291.334l-382 402q6 2 16 7l14 7h2l12 6q2 0 8 2t10 2v30q0 26 18 45t46 19 46-19 18-45v-30q90-22 141-96t51-174v-156zM512-20.666q-36 0-61 24t-25 60h172q0-36-25-60t-61-24zM334 655.334q48-50 251-258t311-322l-54-54-86 86h-586v42l86 86v214q0 82 34 146l-120 118 54 56z" />
<glyph unicode="&#xe924;" glyph-name="bell-ringing" d="M512-20.666q-36 0-61 25t-25 59h170q0-36-24-60t-60-24zM768 447.334v-212l86-86v-42h-684v42l86 86v212q0 100 51 174t141 96v30q0 26 18 45t46 19 46-19 18-45v-30q90-22 141-96t51-174zM852 469.334q-4 72-48 152t-102 122l60 60q166-128 176-334h-86zM324 743.334q-58-42-103-122t-49-152h-86q10 206 176 334z" />
<glyph unicode="&#xe925;" glyph-name="call" d="M854 261.334q18 0 30-12t12-30v-148q0-50-42-50-298 0-512 214t-214 512q0 42 50 42h148q18 0 30-12t12-30q0-78 24-150 8-26-10-44l-82-72q92-192 294-290l66 84q12 12 30 12 10 0 14-2 72-24 150-24z" />
<glyph unicode="&#xe926;" glyph-name="phone-talk" d="M640 405.334q0 52-38 90t-90 38v86q88 0 151-63t63-151h-86zM810 405.334q0 124-87 211t-211 87v86q160 0 272-112t112-272h-86zM854 255.334q18 0 30-12t12-30v-150q0-18-12-30t-30-12q-300 0-513 213t-213 513q0 18 12 30t30 12h150q18 0 30-12t12-30v-2q0-82 24-150 4-8 4-14 0-20-14-30l-94-94q40-76 123-159t159-123l94 94q14 14 30 14 6 0 14-4 72-24 152-24z" />
<glyph unicode="&#xe927;" glyph-name="call-end" d="M512 533.334q-104 0-196-30v-132q0-30-24-40-64-30-114-78-12-12-30-12t-30 12l-106 106q-12 12-12 30t12 30q210 200 500 200t500-200q12-12 12-30t-12-30l-106-106q-12-12-30-12t-30 12q-44 42-114 78-24 10-24 38v132q-100 32-196 32z" />
<glyph unicode="&#xe928;" glyph-name="control-camera" d="M384 405.334q0 52 38 90t90 38 90-38 38-90-38-90-90-38-90 38-38 90zM236 557.334l76-76-76-76 76-76-76-76-150 152zM360 129.334l76 76 76-76 76 76 76-76-152-150zM788 253.334l-76 76 76 76-76 76 76 76 150-152zM664 681.334l-76-76-76 76-76-76-76 76 152 150z" />
<glyph unicode="&#xe929;" glyph-name="gamepad" d="M704 533.334h234v-256h-234l-128 128zM384 213.334l128 128 128-128v-234h-256v234zM320 533.334l128-128-128-128h-234v256h234zM640 597.334l-128-128-128 128v234h256v-234z" />
<glyph unicode="&#xe92a;" glyph-name="camera-flip" d="M682.666 274.371l94.222 96h-74.666q0 78.222-56 133.334t-134.222 55.112q-46.222 0-88.888-23.112l26.666-26.666q24.888 12.444 62.222 12.444 62.222 0 106.666-44.444t44.444-106.666h-74.666zM512 180.148q46.222 0 88.888 23.112l-26.666 28.444q-28.444-14.222-62.222-14.222-62.222 0-106.666 45.334t-44.444 107.556h74.666l-94.222 94.222-94.222-94.222h74.666q0-78.222 56-134.222t134.222-56zM816 672.594q30.222 0 52.444-22.222t22.222-52.444v-455.112q0-30.222-22.222-53.334t-52.444-23.112h-608q-30.222 0-52.444 23.112t-22.222 53.334v455.112q0 30.222 22.222 52.444t52.444 22.222h120.888l69.334 76.444h227.556l69.334-76.444h120.888z" />
<glyph unicode="&#xe92b;" glyph-name="chat" d="M742.36 560.444v77.386h-460.72v-77.386h460.72zM589.386 330.084v77.386h-307.746v-77.386h307.746zM281.64 522.65v-77.386h460.72v77.386h-460.72zM819.746 790.804q30.594 0 53.090-22.496t22.496-53.090v-460.72q0-30.594-22.496-53.99t-53.090-23.396h-538.106l-152.974-152.974v691.080q0 30.594 22.496 53.090t53.090 22.496h615.492z" />
<glyph unicode="&#xe92c;" glyph-name="arrow-left" d="M854 447.334v-84h-520l238-240-60-60-342 342 342 342 60-60-238-240h520z" />
<glyph unicode="&#xe92d;" glyph-name="arrow-right" d="M512 747.334l342-342-342-342-60 60 238 240h-520v84h520l-238 240z" />
<glyph unicode="&#xe92e;" glyph-name="arrow-up" d="M170 405.334l342 342 342-342-62-60-238 238v-520h-84v520l-240-238z" />
<glyph unicode="&#xe92f;" glyph-name="arrow-down" d="M854 405.334l-342-342-342 342 62 60 238-238v520h84v-520l240 238z" />
<glyph unicode="&#xe930;" glyph-name="rotate-left" d="M554 743.334q126-16 213-112t87-226-87-226-213-112v86q92 16 153 87t61 165-61 165-153 87v-166l-194 190 194 194v-132zM302 135.334l62 62q46-34 106-44v-86q-96 12-168 68zM260 363.334q10-58 42-106l-60-60q-56 74-68 166h86zM304 553.334q-36-52-44-106h-86q12 90 70 166z" />
<glyph unicode="&#xe931;" glyph-name="rotate-right" d="M720 257.334q34 46 44 106h86q-12-92-68-166zM554 153.334q60 10 106 44l62-62q-72-56-168-68v86zM850 447.334h-86q-10 60-44 106l62 60q58-72 68-166zM664 681.334l-194-190v166q-92-16-153-87t-61-165 61-165 153-87v-86q-126 16-213 112t-87 226 87 226 213 112v132z" />
<glyph unicode="&#xe932;" glyph-name="360" d="M512 619.334q176 0 301-63t125-151q0-66-71-119t-185-77v88q78 20 125 51t47 57q0 24-40 53t-122 52-180 23-180-23-122-52-40-53q0-30 60-65t154-51v116l170-170-170-172v138q-132 22-215 77t-83 127q0 88 125 151t301 63z" />
<glyph unicode="&#xe933;" glyph-name="chevron-up" d="M512 575.334l256-256-60-60-196 196-196-196-60 60z" />
<glyph unicode="&#xe934;" glyph-name="chevron-down" d="M708 551.334l60-60-256-256-256 256 60 60 196-196z" />
<glyph unicode="&#xe935;" glyph-name="battery-0" d="M677.47 841.848h-72.574v54.153h-189.532v-54.153h-68.833c-44.843-0.045-81.183-36.385-81.228-81.223v-722.064c0.056-44.838 36.39-81.17 81.222-81.228h330.945c44.843 0.045 81.183 36.385 81.228 81.223v722.064c-0.045 44.843-36.385 81.183-81.223 81.228h-0.005zM704.546 38.561c-0.011-14.949-12.127-27.065-27.074-27.075h-330.94c-14.952 0.011-27.072 12.125-27.095 27.073v722.061c0.023 14.951 12.143 27.065 27.094 27.075h330.94c14.949-0.011 27.065-12.127 27.075-27.074v-0.001z" />
<glyph unicode="&#xe936;" glyph-name="battery-1" d="M677.47 841.848h-72.574v54.153h-189.532v-54.153h-68.833c-44.843-0.045-81.183-36.385-81.228-81.223v-722.064c0.056-44.838 36.39-81.17 81.222-81.228h330.945c44.843 0.045 81.183 36.385 81.228 81.223v722.064c-0.045 44.843-36.385 81.183-81.223 81.228h-0.005zM704.546 38.561c-0.011-14.949-12.127-27.065-27.074-27.075h-330.94c-14.952 0.011-27.072 12.125-27.095 27.073v722.061c0.023 14.951 12.143 27.065 27.094 27.075h330.94c14.949-0.011 27.065-12.127 27.075-27.074v-0.001zM675.023 43.535h-326.046v118.809h326.046v-118.809z" />
<glyph unicode="&#xe937;" glyph-name="battery-2" d="M677.47 841.848h-72.574v54.153h-189.532v-54.153h-68.833c-44.843-0.045-81.183-36.385-81.228-81.223v-722.064c0.056-44.838 36.39-81.17 81.222-81.228h330.945c44.843 0.045 81.183 36.385 81.228 81.223v722.064c-0.045 44.843-36.385 81.183-81.223 81.228h-0.005zM704.546 38.561c-0.011-14.949-12.127-27.065-27.074-27.075h-330.94c-14.952 0.011-27.072 12.125-27.095 27.073v722.061c0.023 14.951 12.143 27.065 27.094 27.075h330.94c14.949-0.011 27.065-12.127 27.075-27.074v-0.001zM675.023 43.535h-326.046v118.809h326.046v-118.809zM675.023 191.608h-326.046v118.789h326.046v-118.789z" />
<glyph unicode="&#xe938;" glyph-name="battery-3" d="M677.47 841.848h-72.574v54.153h-189.532v-54.153h-68.833c-44.843-0.045-81.183-36.385-81.228-81.223v-722.064c0.056-44.838 36.39-81.17 81.222-81.228h330.945c44.843 0.045 81.183 36.385 81.228 81.223v722.064c-0.045 44.843-36.385 81.183-81.223 81.228h-0.005zM704.546 38.561c-0.011-14.949-12.127-27.065-27.074-27.075h-330.94c-14.952 0.011-27.072 12.125-27.095 27.073v722.061c0.023 14.951 12.143 27.065 27.094 27.075h330.94c14.949-0.011 27.065-12.127 27.075-27.074v-0.001zM675.023 43.535h-326.046v118.809h326.046v-118.809zM675.023 191.608h-326.046v118.789h326.046v-118.789zM675.023 339.68h-326.046v118.809h326.046v-118.809z" />
<glyph unicode="&#xe939;" glyph-name="battery-4" d="M677.47 841.848h-72.574v54.153h-189.532v-54.153h-68.833c-44.843-0.045-81.183-36.385-81.228-81.223v-722.064c0.056-44.838 36.39-81.17 81.222-81.228h330.945c44.843 0.045 81.183 36.385 81.228 81.223v722.064c-0.045 44.843-36.385 81.183-81.223 81.228h-0.005zM704.546 38.561c-0.011-14.949-12.127-27.065-27.074-27.075h-330.94c-14.952 0.011-27.072 12.125-27.095 27.073v722.061c0.023 14.951 12.143 27.065 27.094 27.075h330.94c14.949-0.011 27.065-12.127 27.075-27.074v-0.001zM675.023 43.535h-326.046v118.809h326.046v-118.809zM675.023 191.608h-326.046v118.789h326.046v-118.789zM675.023 339.68h-326.046v118.809h326.046v-118.809zM675.023 487.414h-326.046v118.809h326.046v-118.809z" />
<glyph unicode="&#xe93a;" glyph-name="battery-5" d="M677.47 841.848h-72.574v54.153h-189.532v-54.153h-68.833c-44.843-0.045-81.183-36.385-81.228-81.223v-722.064c0.056-44.838 36.39-81.17 81.222-81.228h330.945c44.843 0.045 81.183 36.385 81.228 81.223v722.064c-0.045 44.843-36.385 81.183-81.223 81.228h-0.005zM704.546 38.561c-0.011-14.949-12.127-27.065-27.074-27.075h-330.94c-14.952 0.011-27.072 12.125-27.095 27.073v722.061c0.023 14.951 12.143 27.065 27.094 27.075h330.94c14.949-0.011 27.065-12.127 27.075-27.074v-0.001zM675.023 43.535h-326.046v118.809h326.046v-118.809zM675.023 191.608h-326.046v118.789h326.046v-118.789zM675.023 339.68h-326.046v118.809h326.046v-118.809zM675.023 487.414h-326.046v118.809h326.046v-118.809zM348.977 754.314h326.046v-118.828h-326.046v118.828z" />
<glyph unicode="&#xe93b;" glyph-name="external-link" d="M703.995 388.263v-230.4c0-10.597-4.261-20.16-11.251-27.15s-16.552-11.251-27.15-11.251h-422.397c-10.597 0-20.16 4.261-27.15 11.251s-11.251 16.552-11.251 27.15v422.397c0 10.597 4.261 20.16 11.251 27.15s16.552 11.251 27.15 11.251h230.4c21.196 0 38.404 17.202 38.404 38.404s-17.202 38.404-38.404 38.404h-230.4c-31.798 0-60.67-12.941-81.445-33.755s-33.755-49.654-33.755-81.445v-422.397c0-31.798 12.941-60.67 33.755-81.445s49.654-33.755 81.445-33.755h422.397c31.798 0 60.67 12.941 81.445 33.755s33.755 49.654 33.755 81.445v230.4c0 21.196-17.202 38.404-38.404 38.404s-38.404-17.202-38.404-38.404zM462.346 322.72l356.851 356.851v-137.704c0-21.196 17.202-38.404 38.404-38.404s38.404 17.202 38.404 38.404v230.4c0 5.224-1.036 10.18-2.92 14.707s-4.648 8.758-8.293 12.403c-0.040 0.040-0.040 0.040-0.078 0.078-3.534 3.534-7.757 6.376-12.403 8.293-4.53 1.882-9.485 2.92-14.707 2.92h-230.4c-21.196 0-38.404-17.202-38.404-38.404s17.202-38.404 38.404-38.404h137.704l-356.851-356.851c-15.016-15.016-15.016-39.322 0-54.298s39.322-15.016 54.298 0z" />
<glyph unicode="&#xe93c;" glyph-name="lock" d="M637.713 567.619v81.906q0 51.429-37.143 88.569t-88.569 37.143-88.569-37.143-37.143-88.569v-81.906h251.432zM512 201.905q32.381 0 57.143 24.762t24.762 57.143-24.762 57.143-57.143 24.762-57.143-24.762-24.762-57.143 24.762-57.143 57.143-24.762zM755.812 567.619q32.381 0 57.143-23.809t24.762-56.189v-407.619q0-32.381-24.762-56.189t-57.143-23.809h-487.619q-32.381 0-57.143 23.809t-24.762 56.189v407.619q0 32.381 24.762 56.189t57.143 23.809h40v81.906q0 83.809 60 143.812t143.812 60 143.812-60 60-143.812v-81.906h40z" />
<glyph unicode="&#xe93d;" glyph-name="download" d="M214 149.667h596v-86h-596v86zM810 533.667l-298-298-298 298h170v256h256v-256h170z" />
</font>
</defs>
</svg>
